<svg width="124" height="124" viewBox="0 0 124 124" fill="none" xmlns="http://www.w3.org/2000/svg">
<rect width="124" height="124" rx="48" fill="#889CEE"/>
<mask id="mask0" mask-type="alpha" maskUnits="userSpaceOnUse" x="0" y="0" width="124" height="124">
<rect width="124" height="124" rx="48" fill="#889CEE"/>
</mask>
<g mask="url(#mask0)">
<circle cx="62" cy="128" r="50" fill="#B7BDFF"/>
<path d="M88 103C88 103 88.4999 110.5 91 113C93.5001 115.5 95.671 117.24 98.9999 116.5C103.5 115.5 107.5 117.5 108.662 115.5C109.741 113.643 108.662 110 108.662 110C106.682 104.871 103.881 100.151 100.42 95.9998C100.42 95.9998 92.454 92.415 89.954 94.915C88.454 97.415 88 103 88 103Z" fill="#53C092"/>
<path d="M34.0032 86.4456C27.3979 90.9429 21.9667 96.9578 18.1648 103.986C16.3927 107.262 14.9986 110.439 14 114C13.0014 117.561 18.6554 114.275 19 113.5C20.5555 110 25 99.4999 29.5 98.9999C33 99.4999 29.5 106 31.5 108C33.0812 109.581 36.7413 107.663 37 110C37.357 113.224 34.5 113.5 36.643 118.275C38.8061 120.997 45 113.5 47.5 110C49.6018 107.057 50.5 107.5 53 106.5C56 105 71.5 102.5 71.5 96.9999C71.5 94.5847 71.6067 93.6225 69.6583 93.2754C62.5 92 55 94 54.5 93C52.2892 88.5783 57.2877 84.1769 53.5 81C52.5 80.1612 46.143 80.4045 46.143 80.4045C41.8557 81.8526 37.7698 83.881 34.0032 86.4456Z" fill="#53C092"/>
<path d="M86.5 116.5C86.5 122.299 82.7467 127 77.5 127C72.2533 127 78.5 116.5 71 114C68.7188 112.898 72.5669 108.739 72.5669 108.739C72.5669 108.739 75.4515 106 78.5 106C81.4024 106 83.1677 107.733 84.5 110C85.5763 111.831 86.5 113.909 86.5 116.5Z" fill="#53C092"/>
<path d="M97.889 72.8735C98.7595 70.2528 97.3407 67.4227 94.7201 66.5523L72.8777 59.2969L69.0949 70.6851L89.9883 77.6252C93.1331 78.6698 96.5292 76.9673 97.5738 73.8225L97.889 72.8735Z" fill="#4C3B33"/>
<path d="M32.746 72.8033C31.9685 70.1536 33.4863 67.3753 36.136 66.5979L58.2209 60.118L61.5993 71.6326L40.474 77.8309C37.2944 78.7639 33.9604 76.9425 33.0275 73.7628L32.746 72.8033Z" fill="#4C3B33"/>
<path d="M78.3172 67C85.9223 67 94.8569 64.5145 100.145 59.4994C104.958 54.9343 107.211 48.7722 107.988 46.2028C108.173 45.589 107.707 45 107.066 45H48.3172C48.3172 57.1503 61.7487 67 78.3172 67Z" fill="#4C3B33"/>
<path d="M33.7633 48.0803C33.5141 36.6427 42.4413 27.0981 53.8699 26.5829L79.9832 25.4059C90.6275 24.9261 99.6493 33.1576 100.145 43.8012C100.796 57.8011 90.1315 69.7513 76.1479 70.6905L59.6858 71.7962C45.8648 72.7244 34.0651 61.9291 33.7633 48.0803Z" fill="#4C3B33"/>
<path d="M75.3172 24C75.3172 21.2386 77.5558 19 80.3172 19H81.3172C84.0787 19 86.3172 21.2386 86.3172 24V27H75.3172V24Z" fill="#4C3B33"/>
<path d="M34.3172 52.4999V47.4999C34.3172 47.4999 29.8172 44.5 29.3173 41.4999V31.9998C29.3173 31.9998 29.3173 25.9998 22.3173 25.9999C15.3172 26 13.5593 34 15.3173 40.4999C17.0752 46.9998 21.8983 49.7267 22.3173 49.9999C26.327 52.6146 34.3172 52.4999 34.3172 52.4999Z" fill="#4C3B33"/>
<path d="M29.3173 32C29.3173 32 29.3173 25.9999 22.3173 26C16.2182 26.0001 14.0987 32.0734 14.8169 37.936C14.8169 37.936 16.2293 36.721 17.8619 36.7301C19.4944 36.7392 20.8333 39.9287 23.3798 40.5C24.8877 40.8383 25.9318 41.1431 27.3371 40.5C28.2615 40.077 29.3173 38.8104 29.3173 38.8104V32Z" fill="#EFD659"/>
<path d="M100.173 45.0867C100.174 44.6603 100.165 44.2317 100.145 43.8011C100.032 41.3853 99.4805 39.0937 98.5702 37C98.5702 37 92.2754 35.4038 88.8172 37C87.5388 37.5901 86.7064 38.0004 85.6571 38.9393C84.2019 40.2413 83.4905 41.1672 82.8172 43C82.0093 45.1995 81.9945 46.8061 82.8172 49C83.7868 51.5856 85.1975 53.1268 87.8172 54C89.6696 54.6175 90.967 54.6242 92.8172 54C94.6804 53.3715 95.5721 52.3543 96.9101 50.9134C98.7119 48.9731 100.173 45.0867 100.173 45.0867Z" fill="#EFD659"/>
<circle cx="92.6864" cy="45.3553" r="2.5" fill="#4C3B33"/>
</g>
</svg>
