<svg width="185" height="185" viewBox="0 0 185 185" fill="none" xmlns="http://www.w3.org/2000/svg">
  <path d="M139.396 75.1764C148.889 101.108 135.562 129.825 109.631 139.317C83.6994 148.81 54.9826 135.483 45.4901 109.552C35.9976 83.6205 49.3239 54.9037 75.2553 45.4112C101.187 35.9186 129.904 49.245 139.396 75.1764Z" fill="#B7BDFF"/>
  <path d="M51.8678 62.9661C47.211 69.4599 44.1785 76.9753 43.0243 84.8824C42.4864 88.5681 42.2692 92.0302 42.5556 95.7175C42.842 99.4049 46.8654 93.941 47.0395 93.1104C47.9145 88.935 47.9007 78.3198 51.9546 76.3034C55.4132 75.5698 54.3609 82.8768 56.9266 84.0674C58.9549 85.0086 61.7326 81.9492 62.7789 84.0548C64.2226 86.9602 61.6344 88.201 65.2884 91.9487C68.2554 93.7614 71.4945 84.5916 72.6391 80.4455C73.6013 76.9597 74.5968 77.0666 76.6007 75.2681C78.9023 72.8283 92.5983 65.1524 90.7076 59.9875C89.8774 57.7195 89.6469 56.7793 87.6978 57.1231C80.5374 58.3861 74.1819 62.8424 73.3686 62.0752C69.7725 58.6829 72.9535 52.8315 68.3045 51.1502C67.0771 50.7064 61.1911 53.12 61.1911 53.12C57.6629 55.9536 54.5233 59.263 51.8678 62.9661Z" fill="#53C092"/>
  <path d="M129.866 97.1346C125.045 96.6734 126.968 94.5486 127.755 93.0009C128.838 90.871 128.663 90.1368 130.519 90.3143C132.375 90.4918 133.358 92.1137 133.178 93.9971C132.998 95.8805 131.722 97.3121 129.866 97.1346Z" fill="#53C092"/>
  <path d="M141.357 81.9685C140.87 79.6931 140.219 77.4242 139.396 75.1763C135.697 65.0723 129.08 56.882 120.846 51.2097C116.858 49.8846 113.138 50.3437 111.378 52.7316C108.843 56.1725 112.814 64.8783 118.426 69.0145C123.514 72.7643 129.585 68.8284 131.372 67.8784C131.556 67.7805 131.669 67.7201 131.702 67.7101C132.046 67.6028 132.73 67.8445 133.395 68.6592C134.06 69.4739 133.586 71.4349 132.89 73.3394C131.845 76.2009 130.63 79.526 133.85 81.8987C136.425 83.7967 138.751 85.511 141.24 82.133C141.281 82.0784 141.319 82.0236 141.357 81.9685Z" fill="#53C092"/>
  <path d="M115.427 79.4555C114.425 81.5861 112.969 84.1365 110.656 83.7188C109.096 83.4371 105.102 80.3844 103.717 78.6044C102.332 76.8244 102.262 76.0662 101.219 74.8524C100.176 73.6387 94.9449 71.5265 99.1892 65.7677C102.224 61.6498 105.663 62.5596 110.802 66.3474C115.005 69.4449 117.113 75.872 115.427 79.4555Z" fill="#53C092"/>
  <path d="M122.641 94.5897C120.701 97.2225 119.174 97.7034 116.764 95.6147C114.839 93.4527 116.326 91.5384 116.01 89.1552C115.826 85.1091 117.843 83.6981 121.26 86.216C123.93 88.1839 124.582 91.9568 122.641 94.5897Z" fill="#53C092"/>
  <path d="M123.663 124.444C119.269 126.696 114.095 129.348 117.49 133.609C118.179 134.072 119.047 134.213 120.043 134.066C130.884 126.905 138.33 115.876 141.174 103.584C140.968 103.309 140.714 103.069 140.41 102.866C138.886 101.842 136.463 103.573 133.723 105.529C133.457 105.72 133.187 105.912 132.915 106.105C131.601 107.033 129.837 106.947 127.999 106.856C125.396 106.728 122.642 106.593 120.806 109.326C118.614 112.59 121.471 114.423 124.382 116.29C126.104 117.395 127.845 118.511 128.571 119.944C129.369 121.52 126.702 122.886 123.663 124.444Z" fill="#53C092"/>
  <path d="M81.0897 141.064C67.1134 137.792 54.7844 128.566 47.9401 115.167C47.9751 115.102 48.0111 115.036 48.0481 114.971C48.8694 113.522 49.792 110.931 50.8074 108.079C53.2547 101.206 56.2412 92.8181 59.6498 95.2571C64.3583 98.6264 63.6545 103.407 63.1188 107.045C62.6087 110.51 62.2509 112.941 66.864 112.132C69.9532 111.59 72.4159 110.048 74.4879 108.751C77.5841 106.813 79.8079 105.421 81.9463 108.728C83.2887 110.805 82.7392 112.55 82.1502 114.421C81.6613 115.974 81.1453 117.613 81.6615 119.599C82.1357 121.424 83.6468 122.562 85.0677 123.633C86.8009 124.939 88.3997 126.144 87.8179 128.368C87.3634 130.106 85.7916 130.575 84.191 131.053C82.6525 131.513 81.0874 131.98 80.4622 133.59C79.8703 135.113 80.2245 136.343 80.602 137.653C80.8798 138.617 81.1701 139.625 81.1056 140.825C81.1013 140.906 81.096 140.985 81.0897 141.064Z" fill="#53C092"/>
</svg>
